<?xml version="1.0" encoding="utf-8"?>
<!-- Generator: Adobe Illustrator 16.0.3, SVG Export Plug-In . SVG Version: 6.00 Build 0)  -->
<!DOCTYPE svg PUBLIC "-//W3C//DTD SVG 1.1//EN" "http://www.w3.org/Graphics/SVG/1.1/DTD/svg11.dtd" [
	<!ENTITY ns_extend "http://ns.adobe.com/Extensibility/1.0/">
	<!ENTITY ns_ai "http://ns.adobe.com/AdobeIllustrator/10.0/">
	<!ENTITY ns_graphs "http://ns.adobe.com/Graphs/1.0/">
	<!ENTITY ns_vars "http://ns.adobe.com/Variables/1.0/">
	<!ENTITY ns_imrep "http://ns.adobe.com/ImageReplacement/1.0/">
	<!ENTITY ns_sfw "http://ns.adobe.com/SaveForWeb/1.0/">
	<!ENTITY ns_custom "http://ns.adobe.com/GenericCustomNamespace/1.0/">
	<!ENTITY ns_adobe_xpath "http://ns.adobe.com/XPath/1.0/">
]><svg xmlns:x="http://ns.adobe.com/Extensibility/1.0/" xmlns:i="http://ns.adobe.com/AdobeIllustrator/10.0/" xmlns:graph="http://ns.adobe.com/Graphs/1.0/" xmlns="http://www.w3.org/2000/svg" xmlns:xlink="http://www.w3.org/1999/xlink" version="1.1" id="Layer_1" x="0px" y="0px" width="500px" height="500px" viewBox="50 200 500 500" enable-background="new 0 0 500 500" xml:space="preserve">
<metadata id="CorelCorpID_8Corel-Layer">
	<sfw xmlns="http://ns.adobe.com/SaveForWeb/1.0/">
		<slices/>
		<sliceSourceBounds width="347.642" height="370.49" y="7.485" x="25.679" bottomLeftOrigin="true"/>
	</sfw>
</metadata>
<path fill="#DCDDDD" d="M297.637,607.599h-50.964h-74.567c19.918-49.798,68.54-85.029,125.531-85.029  c50.047,0,93.816,27.279,117.166,67.788c-16.991,10.962-37.242,17.322-58.833,17.322h-7.367h-50.798h-0.167V607.599z"/>
<g id="Layer_x0020_2">
	<path fill="currentColor" d="M290.609,243.469L290.609,243.469c23.683,0,45.273,9.708,60.923,25.357   c12.974,12.971,21.926,30.127,24.521,49.125h89.129h6.276v6.277v174.157c0,19.918-5.105,38.745-14.144,55.236   c-9.374,17.067-22.846,31.465-39.165,42.006c-9.123,5.859-19.164,10.547-29.795,13.645c-10.292,3.01-21.174,4.688-32.386,4.688   h-7.367h-50.798h-0.167h-50.964h-74.567h-42.012h-6.277v-6.279V324.228v-6.277h6.277h75.152   c2.595-18.998,11.549-36.153,24.521-49.125c15.65-15.65,37.159-25.357,60.925-25.357H290.609z M363.333,317.951   c-2.511-15.566-9.959-29.542-20.669-40.254c-13.393-13.39-31.806-21.674-52.055-21.674l0,0c-20.252,0-38.665,8.285-52.057,21.674   c-10.709,10.712-18.158,24.688-20.67,40.254h21.424c11.046,0,21.843,1.59,32.052,4.603c9.29,2.679,18.077,6.528,26.278,11.298   c8.288-4.938,17.243-8.787,26.615-11.465c10.126-2.93,20.752-4.436,31.718-4.436h7.447H363.333z M239.307,330.504H136.37v270.901   h35.735h74.567h50.964h0.167h50.798h7.367c10.042,0,19.749-1.424,28.871-4.105c9.456-2.756,18.413-6.942,26.528-12.131   c14.563-9.371,26.615-22.264,34.901-37.494c8.031-14.645,12.553-31.38,12.553-49.209V330.587H355.887   c-9.792,0-19.249,1.423-28.288,3.935c-9.375,2.678-18.077,6.611-26.109,11.631l0,0l-0.672,0.42l-3.347,2.092l-3.347-2.092   c-8.118-5.19-16.989-9.206-26.363-11.968c-9.039-2.595-18.663-4.018-28.62-4.018L239.307,330.504z"/>
</g>
<g id="Layer_x0020_3">
	<path fill="currentColor" d="M224.662,372.517c40.166,0,72.726,32.559,72.726,72.727c0,40.162-32.56,72.725-72.726,72.725   c-40.165,0-72.726-32.563-72.726-72.725C151.936,405.076,184.497,372.517,224.662,372.517z"/>
	<path fill="currentColor" d="M370.613,372.517c40.165,0,72.728,32.559,72.728,72.727c0,40.162-32.563,72.725-72.728,72.725   c-40.166,0-72.725-32.563-72.725-72.725C297.888,405.076,330.447,372.517,370.613,372.517z"/>
</g>
<g id="Layer_x0020_4">
	<circle fill="#DCDDDD" cx="224.662" cy="445.243" r="58.667"/>
	<path fill="#DCDDDD" d="M370.613,386.576c32.399,0,58.666,26.266,58.666,58.668c0,32.401-26.267,58.666-58.666,58.666   c-32.397,0-58.663-26.265-58.663-58.666C311.95,412.841,338.216,386.576,370.613,386.576z"/>
</g>
<g id="Layer_x0020_5">
	<path fill="#FEFEFE" d="M224.662,386.576c27.198,0,50.045,18.496,56.741,43.6c-9.374,18.164-31.216,30.885-56.741,30.885   c-25.442,0-47.285-12.721-56.741-30.885C174.617,405.072,197.462,386.576,224.662,386.576z"/>
	<path fill="#FEFEFE" d="M370.613,386.576c27.198,0,50.046,18.496,56.743,43.6c-9.374,18.164-31.216,30.885-56.743,30.885   c-25.441,0-47.283-12.721-56.737-30.885C320.569,405.072,343.417,386.576,370.613,386.576z"/>
</g>
<g id="Layer_x0020_6">
	<path fill="#3ac47d" d="M239.81,417.542c16.487,0,29.876,13.39,29.876,29.876c0,16.485-13.39,29.875-29.876,29.875   c-16.487,0-29.877-13.39-29.877-29.875c0-4.101,0.838-7.952,2.344-11.551c2.677,2.348,6.193,3.854,10.042,3.854   c8.369,0,15.148-6.781,15.148-15.149c0-2.429-0.586-4.687-1.59-6.78C237.131,417.625,238.47,417.542,239.81,417.542z"/>
	<path fill="#3ac47d" d="M355.468,417.542c16.486,0,29.875,13.39,29.875,29.876c0,16.485-13.389,29.875-29.875,29.875   c-16.489,0-29.879-13.39-29.879-29.875c0-4.101,0.837-7.952,2.345-11.551c2.679,2.348,6.193,3.854,10.041,3.854   c8.37,0,15.149-6.781,15.149-15.149c0-2.429-0.586-4.687-1.592-6.78C352.789,417.625,354.127,417.542,355.468,417.542z"/>
	<path fill="currentColor" d="M297.637,565.251l22.011-38.161l12.303-21.26c-9.457-7.445-21.342-11.885-34.313-11.885   c-12.971,0-24.855,4.439-34.311,11.885l12.302,21.26L297.637,565.251z"/>
</g>
<g id="Layer_x0020_7">
	<path fill="#F6CC77" d="M297.637,499.803c-9.456,0-18.662,2.682-26.528,7.704l26.528,46.027V499.803z"/>
</g>
<g id="Layer_x0020_8">
	<path fill="#F08519" d="M297.637,553.535l0.167-0.255l26.448-45.772c-7.701-4.941-16.656-7.617-25.86-7.704h-0.671v53.731H297.637z   "/>
</g>
</svg>
